<svg width="25" height="24" viewBox="0 0 25 24" fill="none" xmlns="http://www.w3.org/2000/svg">
<path d="M23.6664 7.99978H18.3331V1.33311C18.3331 1.10172 18.2728 0.874324 18.1582 0.673277C18.0437 0.47223 17.8788 0.304455 17.6798 0.186446C17.4771 0.0694211 17.2471 0.0078125 17.0131 0.0078125C16.779 0.0078125 16.5491 0.0694211 16.3464 0.186446L1.67976 8.18645C1.60745 8.23232 1.54039 8.28597 1.47976 8.34645L1.35976 8.43978C1.25139 8.55905 1.16151 8.69388 1.09309 8.83978C1.02366 8.99461 0.991683 9.16362 0.999759 9.33311C0.999759 9.33311 0.999759 9.33311 0.999759 9.33311V22.6664C0.999759 23.0201 1.14023 23.3592 1.39028 23.6093C1.64033 23.8593 1.97947 23.9998 2.33309 23.9998H7.66643C8.02005 23.9998 8.35919 23.8593 8.60923 23.6093C8.85928 23.3592 8.99976 23.0201 8.99976 22.6664C8.99976 22.3128 8.85928 21.9737 8.60923 21.7236C8.35919 21.4736 8.02005 21.3331 7.66643 21.3331H3.66643V10.6664H22.3331V11.9998H18.3331C17.2722 11.9998 16.2548 12.4212 15.5047 13.1714C14.7545 13.9215 14.3331 14.9389 14.3331 15.9998C14.3331 17.0606 14.7545 18.0781 15.5047 18.8282C16.2548 19.5784 17.2722 19.9998 18.3331 19.9998H22.3331V21.3331H12.9998C12.6461 21.3331 12.307 21.4736 12.057 21.7236C11.8069 21.9737 11.6664 22.3128 11.6664 22.6664C11.6664 23.0201 11.8069 23.3592 12.057 23.6093C12.307 23.8593 12.6461 23.9998 12.9998 23.9998H23.6664C24.02 23.9998 24.3592 23.8593 24.6092 23.6093C24.8593 23.3592 24.9998 23.0201 24.9998 22.6664V9.33311C24.9998 8.97949 24.8593 8.64035 24.6092 8.3903C24.3592 8.14026 24.02 7.99978 23.6664 7.99978ZM7.55976 7.99978L15.6664 3.57311V7.99978H7.55976ZM18.3331 17.3331C17.9795 17.3331 17.6403 17.1926 17.3903 16.9426C17.1402 16.6925 16.9998 16.3534 16.9998 15.9998C16.9998 15.6462 17.1402 15.307 17.3903 15.057C17.6403 14.8069 17.9795 14.6664 18.3331 14.6664H22.3331V17.3331H18.3331Z" fill="#6F96AA"/>
</svg>
