<svg width="32" height="32" viewBox="0 0 32 32" fill="none" xmlns="http://www.w3.org/2000/svg">
<path d="M26.6667 6.6665H22.6667C22.313 6.6665 21.9739 6.80698 21.7239 7.05703C21.4738 7.30708 21.3333 7.64622 21.3333 7.99984C21.3333 8.35346 21.4738 8.6926 21.7239 8.94265C21.9739 9.19269 22.313 9.33317 22.6667 9.33317H25.3333V11.9998H6.66667V9.33317H17.3333C17.687 9.33317 18.0261 9.19269 18.2761 8.94265C18.5262 8.6926 18.6667 8.35346 18.6667 7.99984C18.6667 7.64622 18.5262 7.30708 18.2761 7.05703C18.0261 6.80698 17.687 6.6665 17.3333 6.6665H5.33333C4.97971 6.6665 4.64057 6.80698 4.39052 7.05703C4.14048 7.30708 4 7.64622 4 7.99984V23.9998C4 24.3535 4.14048 24.6926 4.39052 24.9426C4.64057 25.1927 4.97971 25.3332 5.33333 25.3332H26.6667C27.0203 25.3332 27.3594 25.1927 27.6095 24.9426C27.8595 24.6926 28 24.3535 28 23.9998V7.99984C28 7.64622 27.8595 7.30708 27.6095 7.05703C27.3594 6.80698 27.0203 6.6665 26.6667 6.6665ZM25.3333 22.6665H6.66667V14.6665H25.3333V22.6665Z" fill="#6F96AA"/>
<path d="M14.6668 21.3332H22.6668C23.0205 21.3332 23.3596 21.1927 23.6096 20.9426C23.8597 20.6926 24.0002 20.3535 24.0002 19.9998C24.0002 19.6462 23.8597 19.3071 23.6096 19.057C23.3596 18.807 23.0205 18.6665 22.6668 18.6665H14.6668C14.3132 18.6665 13.9741 18.807 13.724 19.057C13.474 19.3071 13.3335 19.6462 13.3335 19.9998C13.3335 20.3535 13.474 20.6926 13.724 20.9426C13.9741 21.1927 14.3132 21.3332 14.6668 21.3332Z" fill="#6F96AA"/>
</svg>
