<svg width="32" height="32" viewBox="0 0 32 32" fill="none" xmlns="http://www.w3.org/2000/svg">
<path d="M15.2812 13.3333H18.6678C19.0215 13.3333 19.3606 13.1929 19.6106 12.9428C19.8607 12.6928 20.0012 12.3536 20.0012 12C20.0012 11.6464 19.8607 11.3072 19.6106 11.0572C19.3606 10.8071 19.0215 10.6667 18.6678 10.6667H17.3345V9.33333C17.3345 8.97971 17.194 8.64057 16.944 8.39052C16.6939 8.14048 16.3548 8 16.0012 8C15.6475 8 15.3084 8.14048 15.0584 8.39052C14.8083 8.64057 14.6678 8.97971 14.6678 9.33333V10.6667C14.6678 10.6667 14.6678 10.6667 14.6678 10.7333C13.8619 10.8966 13.1447 11.3519 12.6541 12.0119C12.1636 12.6719 11.9343 13.49 12.0104 14.3088C12.0865 15.1276 12.4626 15.8894 13.0663 16.4477C13.6701 17.006 14.4589 17.3214 15.2812 17.3333H16.7212C16.8095 17.3383 16.8958 17.3611 16.9751 17.4004C17.0543 17.4397 17.1247 17.4947 17.182 17.562C17.2394 17.6293 17.2825 17.7076 17.3087 17.792C17.3349 17.8765 17.3437 17.9654 17.3345 18.0533C17.3311 18.2149 17.2654 18.369 17.1511 18.4833C17.0368 18.5976 16.8828 18.6633 16.7212 18.6667H13.3345C12.9809 18.6667 12.6417 18.8071 12.3917 19.0572C12.1416 19.3072 12.0012 19.6464 12.0012 20C12.0012 20.3536 12.1416 20.6928 12.3917 20.9428C12.6417 21.1929 12.9809 21.3333 13.3345 21.3333H14.6678V22.6667C14.6678 23.0203 14.8083 23.3594 15.0584 23.6095C15.3084 23.8595 15.6475 24 16.0012 24C16.3548 24 16.6939 23.8595 16.944 23.6095C17.194 23.3594 17.3345 23.0203 17.3345 22.6667V21.3333C17.3345 21.3333 17.3345 21.3333 17.3345 21.2667C18.1405 21.1034 18.8577 20.6481 19.3482 19.9881C19.8388 19.3281 20.068 18.51 19.9919 17.6912C19.9158 16.8724 19.5398 16.1106 18.936 15.5523C18.3322 14.994 17.5434 14.6786 16.7212 14.6667H15.2812C15.1929 14.6617 15.1065 14.6389 15.0273 14.5996C14.9481 14.5603 14.8777 14.5053 14.8203 14.438C14.763 14.3707 14.7199 14.2924 14.6937 14.208C14.6675 14.1235 14.6587 14.0346 14.6678 13.9467C14.6712 13.7851 14.7369 13.631 14.8512 13.5167C14.9655 13.4024 15.1196 13.3367 15.2812 13.3333Z" fill="#6F96AA"/>
<path d="M16.0007 4.0001C13.9924 4.00062 12.0164 4.50519 10.2536 5.46755C8.49092 6.42992 6.99792 7.8193 5.91146 9.50836C4.82501 11.1974 4.17985 13.1322 4.03511 15.1353C3.89038 17.1384 4.25069 19.1457 5.08303 20.9735C5.91537 22.8012 7.19311 24.3908 8.79917 25.5965C10.4052 26.8023 12.2882 27.5857 14.2756 27.875C16.263 28.1642 18.2912 27.9501 20.1743 27.2521C22.0574 26.5542 23.7353 25.3947 25.0541 23.8801C25.2875 23.6131 25.4052 23.2643 25.3815 22.9105C25.3577 22.5567 25.1944 22.2268 24.9274 21.9934C24.6604 21.76 24.3117 21.6423 23.9578 21.666C23.604 21.6898 23.2741 21.8531 23.0407 22.1201C21.6046 23.77 19.6347 24.8631 17.4747 25.2085C15.3148 25.554 13.1022 25.1298 11.2231 24.0101C9.34406 22.8905 7.91795 21.1464 7.19377 19.0823C6.46959 17.0183 6.49335 14.7655 7.2609 12.7173C8.02844 10.669 9.49102 8.95535 11.3933 7.87554C13.2955 6.79572 15.5166 6.41833 17.6688 6.80925C19.8209 7.20017 21.7674 8.33457 23.1684 10.0144C24.5694 11.6942 25.3359 13.8127 25.3341 16.0001C25.3365 16.6 25.2785 17.1986 25.1607 17.7868C25.0936 18.1404 25.1696 18.5062 25.3721 18.8038C25.5747 19.1013 25.8871 19.3062 26.2407 19.3734C26.5944 19.4406 26.9602 19.3646 27.2578 19.162C27.5553 18.9595 27.7602 18.6471 27.8274 18.2934C28.1665 16.5518 28.1152 14.7567 27.6771 13.0373C27.2391 11.3179 26.4252 9.71709 25.2941 8.35007C24.163 6.98305 22.7428 5.88386 21.1358 5.13168C19.5288 4.37949 17.775 3.99302 16.0007 4.0001Z" fill="#6F96AA"/>
</svg>
