<svg width="32" height="32" viewBox="0 0 32 32" fill="none" xmlns="http://www.w3.org/2000/svg">
<path d="M9.33333 21.3335C8.97971 21.3335 8.64057 21.474 8.39052 21.724C8.14048 21.9741 8 22.3132 8 22.6668C8 23.0205 8.14048 23.3596 8.39052 23.6096C8.64057 23.8597 8.97971 24.0002 9.33333 24.0002H14.6667C15.0203 24.0002 15.3594 23.8597 15.6095 23.6096C15.8595 23.3596 16 23.0205 16 22.6668C16 22.3132 15.8595 21.9741 15.6095 21.724C15.3594 21.474 15.0203 21.3335 14.6667 21.3335H9.33333Z" fill="#6F96AA"/>
<path d="M26.6667 5.33333H18.6667C18.5155 5.33736 18.3664 5.36899 18.2267 5.42667C17.8313 4.97831 17.345 4.61921 16.8002 4.37323C16.2554 4.12725 15.6645 4.00002 15.0667 4H5.33333C4.97971 4 4.64057 4.14048 4.39052 4.39052C4.14048 4.64057 4 4.97971 4 5.33333V26.6667C4 27.0203 4.14048 27.3594 4.39052 27.6095C4.64057 27.8595 4.97971 28 5.33333 28H17.3333C17.687 28 18.0261 27.8595 18.2761 27.6095C18.5262 27.3594 18.6667 27.0203 18.6667 26.6667C18.6667 26.313 18.5262 25.9739 18.2761 25.7239C18.0261 25.4738 17.687 25.3333 17.3333 25.3333H6.66667V12H25.3333V25.3333H22.6667C22.313 25.3333 21.9739 25.4738 21.7239 25.7239C21.4738 25.9739 21.3333 26.313 21.3333 26.6667C21.3333 27.0203 21.4738 27.3594 21.7239 27.6095C21.9739 27.8595 22.313 28 22.6667 28H26.6667C27.0203 28 27.3594 27.8595 27.6095 27.6095C27.8595 27.3594 28 27.0203 28 26.6667V6.66667C28 6.31304 27.8595 5.97391 27.6095 5.72386C27.3594 5.47381 27.0203 5.33333 26.6667 5.33333ZM6.66667 9.33333V6.66667H15.0667C15.4158 6.66779 15.7546 6.785 16.0298 6.99984C16.305 7.21467 16.5009 7.51493 16.5867 7.85333L16.96 9.33333H6.66667ZM19.7067 9.33333L19.3733 8H25.3333V9.33333H19.7067Z" fill="#6F96AA"/>
</svg>
