<svg width="32" height="32" viewBox="0 0 32 32" fill="none" xmlns="http://www.w3.org/2000/svg">
<path d="M24 15.68C23.6464 15.68 23.3073 15.8205 23.0572 16.0705C22.8072 16.3206 22.6667 16.6597 22.6667 17.0133V26.3467H20V19.68C20 19.3264 19.8596 18.9872 19.6095 18.7372C19.3595 18.4871 19.0203 18.3467 18.6667 18.3467H13.3334C12.9798 18.3467 12.6406 18.4871 12.3906 18.7372C12.1405 18.9872 12 19.3264 12 19.68V26.3467H9.33338V17.0133C9.33338 16.6597 9.1929 16.3206 8.94285 16.0705C8.6928 15.8205 8.35366 15.68 8.00004 15.68C7.64642 15.68 7.30728 15.8205 7.05723 16.0705C6.80719 16.3206 6.66671 16.6597 6.66671 17.0133V27.68C6.66671 28.0336 6.80719 28.3728 7.05723 28.6228C7.30728 28.8729 7.64642 29.0133 8.00004 29.0133H24C24.3537 29.0133 24.6928 28.8729 24.9429 28.6228C25.1929 28.3728 25.3334 28.0336 25.3334 27.68V17.0133C25.3334 16.6597 25.1929 16.3206 24.9429 16.0705C24.6928 15.8205 24.3537 15.68 24 15.68ZM17.3334 26.3467H14.6667V21.0133H17.3334V26.3467ZM29.1334 16C29.0084 16.1422 28.8546 16.2562 28.6822 16.3344C28.5098 16.4125 28.3227 16.4531 28.1334 16.4533C27.8093 16.4529 27.4964 16.3344 27.2534 16.12L16 6.14667L4.74671 16.0667C4.6169 16.1914 4.46319 16.2885 4.29485 16.3521C4.1265 16.4158 3.947 16.4448 3.76717 16.4372C3.58734 16.4297 3.4109 16.3858 3.24848 16.3082C3.08607 16.2307 2.94103 16.121 2.82213 15.9859C2.70322 15.8508 2.61291 15.693 2.55662 15.522C2.50033 15.3511 2.47924 15.1705 2.49462 14.9911C2.51 14.8118 2.56153 14.6375 2.6461 14.4786C2.73067 14.3197 2.84654 14.1796 2.98671 14.0667L15.12 3.40001C15.3634 3.18625 15.6762 3.06836 16 3.06836C16.3239 3.06836 16.6367 3.18625 16.88 3.40001L29.0134 14.0667C29.1525 14.1829 29.2665 14.3263 29.3484 14.488C29.4303 14.6498 29.4783 14.8265 29.4895 15.0075C29.5008 15.1885 29.475 15.3698 29.4137 15.5405C29.3525 15.7111 29.2571 15.8675 29.1334 16Z" fill="#6F96AA"/>
</svg>
