<svg width="32" height="32" viewBox="0 0 32 32" fill="none" xmlns="http://www.w3.org/2000/svg">
<path d="M23.9974 28H21.3307C20.9771 28 20.638 27.8595 20.3879 27.6095C20.1379 27.3594 19.9974 27.0203 19.9974 26.6667C19.9974 26.313 20.1379 25.9739 20.3879 25.7239C20.638 25.4738 20.9771 25.3333 21.3307 25.3333H22.6641V6.66667H9.33073V25.3333H15.9974C16.351 25.3333 16.6902 25.4738 16.9402 25.7239C17.1903 25.9739 17.3307 26.313 17.3307 26.6667C17.3307 27.0203 17.1903 27.3594 16.9402 27.6095C16.6902 27.8595 16.351 28 15.9974 28H7.9974C7.64377 28 7.30464 27.8595 7.05459 27.6095C6.80454 27.3594 6.66406 27.0203 6.66406 26.6667V5.33333C6.66406 4.97971 6.80454 4.64057 7.05459 4.39052C7.30464 4.14048 7.64377 4 7.9974 4H23.9974C24.351 4 24.6902 4.14048 24.9402 4.39052C25.1903 4.64057 25.3307 4.97971 25.3307 5.33333V26.6667C25.3307 27.0203 25.1903 27.3594 24.9402 27.6095C24.6902 27.8595 24.351 28 23.9974 28Z" fill="#6F96AA"/>
<path d="M19.9974 12.0026H11.9974C11.6438 12.0026 11.3046 11.8621 11.0546 11.6121C10.8045 11.362 10.6641 11.0229 10.6641 10.6693C10.6641 10.3156 10.8045 9.97651 11.0546 9.72646C11.3046 9.47641 11.6438 9.33594 11.9974 9.33594H19.9974C20.351 9.33594 20.6902 9.47641 20.9402 9.72646C21.1903 9.97651 21.3307 10.3156 21.3307 10.6693C21.3307 11.0229 21.1903 11.362 20.9402 11.6121C20.6902 11.8621 20.351 12.0026 19.9974 12.0026ZM19.9974 17.3359H11.9974C11.6438 17.3359 11.3046 17.1955 11.0546 16.9454C10.8045 16.6954 10.6641 16.3562 10.6641 16.0026C10.6641 15.649 10.8045 15.3098 11.0546 15.0598C11.3046 14.8097 11.6438 14.6693 11.9974 14.6693H19.9974C20.351 14.6693 20.6902 14.8097 20.9402 15.0598C21.1903 15.3098 21.3307 15.649 21.3307 16.0026C21.3307 16.3562 21.1903 16.6954 20.9402 16.9454C20.6902 17.1955 20.351 17.3359 19.9974 17.3359ZM19.9974 22.6693H11.9974C11.6438 22.6693 11.3046 22.5288 11.0546 22.2787C10.8045 22.0287 10.6641 21.6896 10.6641 21.3359C10.6641 20.9823 10.8045 20.6432 11.0546 20.3931C11.3046 20.1431 11.6438 20.0026 11.9974 20.0026H19.9974C20.351 20.0026 20.6902 20.1431 20.9402 20.3931C21.1903 20.6432 21.3307 20.9823 21.3307 21.3359C21.3307 21.6896 21.1903 22.0287 20.9402 22.2787C20.6902 22.5288 20.351 22.6693 19.9974 22.6693Z" fill="#6F96AA"/>
</svg>
