<svg width="32" height="32" viewBox="0 0 32 32" fill="none" xmlns="http://www.w3.org/2000/svg">
<path d="M28 7.8534C28.0075 7.76467 28.0075 7.67546 28 7.58673L27.88 7.3334C27.88 7.3334 27.88 7.24006 27.8133 7.20006L27.7467 7.1334L27.5333 6.96006C27.475 6.90073 27.4075 6.85121 27.3333 6.8134L27.1067 6.7334H26.84H5.24H4.97333L4.74667 6.82673C4.67233 6.85842 4.60451 6.90363 4.54667 6.96006L4.33333 7.1334C4.33333 7.1334 4.33333 7.1334 4.33333 7.20006C4.33333 7.26673 4.33333 7.2934 4.26667 7.3334L4.14667 7.58673C4.13912 7.67546 4.13912 7.76467 4.14667 7.8534L4 8.00006V24.0001C4 24.3537 4.14048 24.6928 4.39052 24.9429C4.64057 25.1929 4.97971 25.3334 5.33333 25.3334H17.3333C17.687 25.3334 18.0261 25.1929 18.2761 24.9429C18.5262 24.6928 18.6667 24.3537 18.6667 24.0001C18.6667 23.6464 18.5262 23.3073 18.2761 23.0573C18.0261 22.8072 17.687 22.6667 17.3333 22.6667H6.66667V10.6667L15.2 17.0667C15.4308 17.2398 15.7115 17.3334 16 17.3334C16.2885 17.3334 16.5692 17.2398 16.8 17.0667L25.3333 10.6667V22.6667H22.6667C22.313 22.6667 21.9739 22.8072 21.7239 23.0573C21.4738 23.3073 21.3333 23.6464 21.3333 24.0001C21.3333 24.3537 21.4738 24.6928 21.7239 24.9429C21.9739 25.1929 22.313 25.3334 22.6667 25.3334H26.6667C27.0203 25.3334 27.3594 25.1929 27.6095 24.9429C27.8595 24.6928 28 24.3537 28 24.0001V8.00006C28 8.00006 28 7.90673 28 7.8534ZM16 14.3334L9.33333 9.3334H22.6667L16 14.3334Z" fill="#6F96AA"/>
</svg>
