<svg width="32" height="32" viewBox="0 0 32 32" fill="none" xmlns="http://www.w3.org/2000/svg">
<path d="M26.6667 4H5.33333C4.97971 4 4.64057 4.14048 4.39052 4.39052C4.14048 4.64057 4 4.97971 4 5.33333V26.6667C4 27.0203 4.14048 27.3594 4.39052 27.6095C4.64057 27.8595 4.97971 28 5.33333 28H17.3333C17.687 28 18.0261 27.8595 18.2761 27.6095C18.5262 27.3594 18.6667 27.0203 18.6667 26.6667C18.6667 26.313 18.5262 25.9739 18.2761 25.7239C18.0261 25.4738 17.687 25.3333 17.3333 25.3333H6.66667V17.3333H25.3333V25.3333H22.6667C22.313 25.3333 21.9739 25.4738 21.7239 25.7239C21.4738 25.9739 21.3333 26.313 21.3333 26.6667C21.3333 27.0203 21.4738 27.3594 21.7239 27.6095C21.9739 27.8595 22.313 28 22.6667 28H26.6667C27.0203 28 27.3594 27.8595 27.6095 27.6095C27.8595 27.3594 28 27.0203 28 26.6667V5.33333C28 4.97971 27.8595 4.64057 27.6095 4.39052C27.3594 4.14048 27.0203 4 26.6667 4ZM6.66667 14.6667V6.66667H25.3333V14.6667H6.66667Z" fill="#6F96AA"/>
<path d="M21.3332 20C21.3332 19.6464 21.1927 19.3072 20.9426 19.0572C20.6926 18.8071 20.3535 18.6667 19.9998 18.6667C19.6462 18.6667 19.3071 18.8071 19.057 19.0572C18.807 19.3072 18.6665 19.6464 18.6665 20H13.3332C13.3332 19.6464 13.1927 19.3072 12.9426 19.0572C12.6926 18.8071 12.3535 18.6667 11.9998 18.6667C11.6462 18.6667 11.3071 18.8071 11.057 19.0572C10.807 19.3072 10.6665 19.6464 10.6665 20V21.3333C10.6665 21.687 10.807 22.0261 11.057 22.2761C11.3071 22.5262 11.6462 22.6667 11.9998 22.6667H19.9998C20.3535 22.6667 20.6926 22.5262 20.9426 22.2761C21.1927 22.0261 21.3332 21.687 21.3332 21.3333V20ZM19.9998 8C19.6462 8 19.3071 8.14048 19.057 8.39052C18.807 8.64057 18.6665 8.97971 18.6665 9.33333H13.3332C13.3332 8.97971 13.1927 8.64057 12.9426 8.39052C12.6926 8.14048 12.3535 8 11.9998 8C11.6462 8 11.3071 8.14048 11.057 8.39052C10.807 8.64057 10.6665 8.97971 10.6665 9.33333V10.6667C10.6665 11.0203 10.807 11.3594 11.057 11.6095C11.3071 11.8595 11.6462 12 11.9998 12H19.9998C20.3535 12 20.6926 11.8595 20.9426 11.6095C21.1927 11.3594 21.3332 11.0203 21.3332 10.6667V9.33333C21.3332 8.97971 21.1927 8.64057 20.9426 8.39052C20.6926 8.14048 20.3535 8 19.9998 8Z" fill="#6F96AA"/>
</svg>
