<svg width="32" height="32" viewBox="0 0 32 32" fill="none" xmlns="http://www.w3.org/2000/svg">
<path d="M18.6668 13.3332H21.3335C21.6871 13.3332 22.0263 13.1927 22.2763 12.9426C22.5264 12.6926 22.6668 12.3535 22.6668 11.9998C22.6668 11.6462 22.5264 11.3071 22.2763 11.057C22.0263 10.807 21.6871 10.6665 21.3335 10.6665H18.6668C18.3132 10.6665 17.9741 10.807 17.724 11.057C17.474 11.3071 17.3335 11.6462 17.3335 11.9998C17.3335 12.3535 17.474 12.6926 17.724 12.9426C17.9741 13.1927 18.3132 13.3332 18.6668 13.3332ZM22.6668 19.9998C22.6668 19.6462 22.5264 19.3071 22.2763 19.057C22.0263 18.807 21.6871 18.6665 21.3335 18.6665H18.6668C18.3132 18.6665 17.9741 18.807 17.724 19.057C17.474 19.3071 17.3335 19.6462 17.3335 19.9998C17.3335 20.3535 17.474 20.6926 17.724 20.9426C17.9741 21.1927 18.3132 21.3332 18.6668 21.3332H21.3335C21.6871 21.3332 22.0263 21.1927 22.2763 20.9426C22.5264 20.6926 22.6668 20.3535 22.6668 19.9998Z" fill="#6F96AA"/>
<path d="M25.3335 4H6.66683C6.31321 4 5.97407 4.14048 5.72402 4.39052C5.47397 4.64057 5.3335 4.97971 5.3335 5.33333V26.6667C5.3335 27.0203 5.47397 27.3594 5.72402 27.6095C5.97407 27.8595 6.31321 28 6.66683 28H16.0002C16.3538 28 16.6929 27.8595 16.943 27.6095C17.193 27.3594 17.3335 27.0203 17.3335 26.6667C17.3335 26.313 17.193 25.9739 16.943 25.7239C16.6929 25.4738 16.3538 25.3333 16.0002 25.3333H8.00016V6.66667H24.0002V25.3333H21.3335C20.9799 25.3333 20.6407 25.4738 20.3907 25.7239C20.1406 25.9739 20.0002 26.313 20.0002 26.6667C20.0002 27.0203 20.1406 27.3594 20.3907 27.6095C20.6407 27.8595 20.9799 28 21.3335 28H25.3335C25.6871 28 26.0263 27.8595 26.2763 27.6095C26.5264 27.3594 26.6668 27.0203 26.6668 26.6667V5.33333C26.6668 4.97971 26.5264 4.64057 26.2763 4.39052C26.0263 4.14048 25.6871 4 25.3335 4Z" fill="#6F96AA"/>
<path d="M15.6136 9.72008C15.4896 9.59511 15.3422 9.49592 15.1797 9.42823C15.0172 9.36053 14.8429 9.32568 14.6669 9.32568C14.4909 9.32568 14.3166 9.36053 14.1541 9.42823C13.9917 9.49592 13.8442 9.59511 13.7202 9.72008L12.0002 11.4534L11.6136 11.0534C11.3625 10.8023 11.022 10.6613 10.6669 10.6613C10.3118 10.6613 9.97132 10.8023 9.72025 11.0534C9.46918 11.3045 9.32813 11.645 9.32812 12.0001C9.32812 12.1759 9.36275 12.35 9.43003 12.5124C9.49732 12.6748 9.59593 12.8224 9.72025 12.9467L11.0536 14.2801C11.1775 14.4051 11.325 14.5042 11.4875 14.5719C11.65 14.6396 11.8242 14.6745 12.0002 14.6745C12.1763 14.6745 12.3505 14.6396 12.513 14.5719C12.6755 14.5042 12.823 14.4051 12.9469 14.2801L15.6136 11.6134C15.7386 11.4895 15.8377 11.342 15.9054 11.1795C15.9731 11.017 16.008 10.8428 16.008 10.6667C16.008 10.4907 15.9731 10.3165 15.9054 10.154C15.8377 9.9915 15.7386 9.84403 15.6136 9.72008ZM13.7202 17.7201L12.0002 19.4534L11.6136 19.0534C11.3625 18.8023 11.022 18.6613 10.6669 18.6613C10.3118 18.6613 9.97132 18.8023 9.72025 19.0534C9.46918 19.3045 9.32812 19.645 9.32812 20.0001C9.32812 20.1759 9.36275 20.35 9.43003 20.5124C9.49732 20.6748 9.59593 20.8224 9.72025 20.9467L11.0536 22.2801C11.1775 22.4051 11.325 22.5042 11.4875 22.5719C11.65 22.6396 11.8242 22.6745 12.0002 22.6745C12.1763 22.6745 12.3505 22.6396 12.513 22.5719C12.6755 22.5042 12.823 22.4051 12.9469 22.2801L15.6136 19.6134C15.8647 19.3623 16.0057 19.0218 16.0057 18.6667C16.0057 18.3117 15.8647 17.9712 15.6136 17.7201C15.3625 17.469 15.022 17.328 14.6669 17.328C14.3118 17.328 13.9713 17.469 13.7202 17.7201Z" fill="#6F96AA"/>
</svg>
