<svg width="32" height="32" viewBox="0 0 32 32" fill="none" xmlns="http://www.w3.org/2000/svg">
<path d="M25.3335 27.9998H22.6668C22.3132 27.9998 21.9741 27.8593 21.724 27.6093C21.474 27.3592 21.3335 27.0201 21.3335 26.6665C21.3335 26.3129 21.474 25.9737 21.724 25.7237C21.9741 25.4736 22.3132 25.3332 22.6668 25.3332H24.0002V21.1732C23.9957 20.8017 23.9109 20.4357 23.7515 20.1002C23.5921 19.7647 23.362 19.4676 23.077 19.2294C22.792 18.9913 22.4588 18.8176 22.1003 18.7205C21.7417 18.6233 21.3665 18.6049 21.0002 18.6665L16.8935 22.3465C16.6485 22.5676 16.3302 22.69 16.0002 22.69C15.6701 22.69 15.3518 22.5676 15.1068 22.3465L11.0002 18.6665C10.6339 18.6049 10.2586 18.6233 9.90007 18.7205C9.54157 18.8176 9.20835 18.9913 8.92331 19.2294C8.63828 19.4676 8.40818 19.7647 8.24882 20.1002C8.08947 20.4357 8.00464 20.8017 8.00016 21.1732V25.3332H17.3335C17.6871 25.3332 18.0263 25.4736 18.2763 25.7237C18.5264 25.9737 18.6668 26.3129 18.6668 26.6665C18.6668 27.0201 18.5264 27.3592 18.2763 27.6093C18.0263 27.8593 17.6871 27.9998 17.3335 27.9998H6.66683C6.31321 27.9998 5.97407 27.8593 5.72402 27.6093C5.47397 27.3592 5.3335 27.0201 5.3335 26.6665V21.1732C5.33652 20.3643 5.52627 19.5671 5.88796 18.8436C6.24965 18.1202 6.77351 17.49 7.41872 17.0022C8.06393 16.5144 8.81306 16.1822 9.60773 16.0315C10.4024 15.8807 11.2211 15.9155 12.0002 16.1332C12.1909 16.1962 12.3675 16.2959 12.5202 16.4265L16.0002 19.5465L19.4668 16.4265C19.6234 16.2943 19.8047 16.1946 20.0002 16.1332C20.7792 15.9155 21.5979 15.8807 22.3926 16.0315C23.1873 16.1822 23.9364 16.5144 24.5816 17.0022C25.2268 17.49 25.7507 18.1202 26.1124 18.8436C26.4741 19.5671 26.6638 20.3643 26.6668 21.1732V26.6665C26.6668 27.0201 26.5264 27.3592 26.2763 27.6093C26.0263 27.8593 25.6871 27.9998 25.3335 27.9998Z" fill="#6F96AA"/>
<path d="M16.0002 17.3333C14.6816 17.3333 13.3927 16.9423 12.2964 16.2098C11.2 15.4773 10.3456 14.4361 9.84097 13.2179C9.33638 11.9997 9.20436 10.6593 9.4616 9.36607C9.71883 8.07286 10.3538 6.88497 11.2861 5.95262C12.2185 5.02027 13.4064 4.38534 14.6996 4.1281C15.9928 3.87087 17.3332 4.00289 18.5514 4.50747C19.7696 5.01206 20.8108 5.86654 21.5433 6.96287C22.2758 8.0592 22.6668 9.34813 22.6668 10.6667C22.6668 12.4348 21.9645 14.1305 20.7142 15.3807C19.464 16.631 17.7683 17.3333 16.0002 17.3333ZM16.0002 6.66667C15.209 6.66667 14.4357 6.90127 13.7779 7.34079C13.1201 7.78032 12.6074 8.40503 12.3046 9.13594C12.0019 9.86684 11.9227 10.6711 12.077 11.447C12.2314 12.223 12.6123 12.9357 13.1717 13.4951C13.7311 14.0545 14.4439 14.4355 15.2198 14.5898C15.9957 14.7442 16.8 14.6649 17.5309 14.3622C18.2618 14.0594 18.8865 13.5467 19.326 12.889C19.7656 12.2312 20.0002 11.4578 20.0002 10.6667C20.0002 9.6058 19.5787 8.58839 18.8286 7.83824C18.0784 7.0881 17.061 6.66667 16.0002 6.66667Z" fill="#6F96AA"/>
</svg>
