<svg width="32" height="32" viewBox="0 0 32 32" fill="none" xmlns="http://www.w3.org/2000/svg">
<path d="M26.6664 11.9998H21.3331V5.33311C21.3331 5.10172 21.2728 4.87432 21.1582 4.67328C21.0437 4.47223 20.8788 4.30445 20.6798 4.18645C20.4771 4.06942 20.2471 4.00781 20.0131 4.00781C19.779 4.00781 19.5491 4.06942 19.3464 4.18645L4.67976 12.1864C4.60745 12.2323 4.54039 12.286 4.47976 12.3464L4.35976 12.4398C4.25139 12.559 4.16151 12.6939 4.09309 12.8398C4.02366 12.9946 3.99168 13.1636 3.99976 13.3331V26.6664C3.99976 27.0201 4.14023 27.3592 4.39028 27.6093C4.64033 27.8593 4.97947 27.9998 5.33309 27.9998H10.6664C11.02 27.9998 11.3592 27.8593 11.6092 27.6093C11.8593 27.3592 11.9998 27.0201 11.9998 26.6664C11.9998 26.3128 11.8593 25.9737 11.6092 25.7236C11.3592 25.4736 11.02 25.3331 10.6664 25.3331H6.66643V14.6664H25.3331V15.9998H21.3331C20.2722 15.9998 19.2548 16.4212 18.5047 17.1714C17.7545 17.9215 17.3331 18.9389 17.3331 19.9998C17.3331 21.0606 17.7545 22.0781 18.5047 22.8282C19.2548 23.5784 20.2722 23.9998 21.3331 23.9998H25.3331V25.3331H15.9998C15.6461 25.3331 15.307 25.4736 15.057 25.7236C14.8069 25.9737 14.6664 26.3128 14.6664 26.6664C14.6664 27.0201 14.8069 27.3592 15.057 27.6093C15.307 27.8593 15.6461 27.9998 15.9998 27.9998H26.6664C27.02 27.9998 27.3592 27.8593 27.6092 27.6093C27.8593 27.3592 27.9998 27.0201 27.9998 26.6664V13.3331C27.9998 12.9795 27.8593 12.6404 27.6092 12.3903C27.3592 12.1403 27.02 11.9998 26.6664 11.9998ZM10.5598 11.9998L18.6664 7.57311V11.9998H10.5598ZM21.3331 21.3331C20.9795 21.3331 20.6403 21.1926 20.3903 20.9426C20.1402 20.6925 19.9998 20.3534 19.9998 19.9998C19.9998 19.6462 20.1402 19.307 20.3903 19.057C20.6403 18.8069 20.9795 18.6664 21.3331 18.6664H25.3331V21.3331H21.3331Z" fill="#6F96AA"/>
</svg>
